<svg xmlns="http://www.w3.org/2000/svg" width="100" height="56" viewBox="0 0 100 56"><path d="M39.4 40.9c-2.1 1.9-6.1 5.6-12.8 5.6 -7.9 0-15.5-6.9-15.5-18 0-14.2 9.1-18.8 16.1-18.8 10.1 0 12.3 6.1 15 14.5l3.7 11.5C49.5 47 56.4 56 76.2 56 90.4 56 100 51.6 100 40.1c0-9.4-5.3-14.2-15.1-16.5l-7.3-1.6c-5-1.2-6.5-3.2-6.5-6.7 0-3.9 3.1-6.2 8.1-6.2 5.5 0 8.5 2.1 8.9 7l11.5-1.4C98.6 4.3 91.5 0 79.8 0 69.5 0 59.5 3.9 59.5 16.5c0 7.9 3.8 12.8 13.3 15.1l7.8 1.8c5.8 1.4 7.8 3.8 7.8 7.2 0 4.3-4.1 6-11.9 6 -11.6 0-17.4-6.1-20.1-14.5l-3.8-11.5C47.7 5.5 42 0 26.8 0 13.2 0 0 10.7 0 29 0 46.5 12.7 56 26 56c9.6 0 14.5-3.4 16.9-5.1L39.4 40.9z"></path></svg>