<svg xmlns="http://www.w3.org/2000/svg" width="100" height="100" viewBox="0 0 100 100"><path d="M87.9 5.6H11.2c-3.7 0-6.6 2.9-6.6 6.4v77.1c0 3.6 3 6.5 6.7 6.5h76.7c3.7 0 6.6-2.9 6.6-6.5V12.1C94.5 8.5 91.5 5.6 87.9 5.6zM31.8 80.9H18.2V40.3h13.6V80.9zM25 34.8H24.9c-4.6 0-7.5-3.1-7.5-7 0-4 3-7 7.7-7 4.7 0 7.5 3 7.6 7C32.7 31.6 29.7 34.8 25 34.8zM80.8 80.9H67.2v-21.7c0-5.5-2-9.2-6.9-9.2 -3.8 0-6 2.5-7 4.9 -0.4 0.9-0.5 2.1-0.5 3.3v22.7H39.3c0 0 0.2-36.8 0-40.6h13.6v5.8c1.8-2.8 5-6.7 12.2-6.7 8.9 0 15.7 5.8 15.7 18.3V80.9zM52.8 46.2c0 0 0.1-0.1 0.1-0.1v0.1H52.8z"></path></svg>